<?xml version="1.0" standalone="no"?>
<!DOCTYPE svg PUBLIC "-//W3C//DTD SVG 20010904//EN"
        "http://www.w3.org/TR/2001/REC-SVG-20010904/DTD/svg10.dtd">
<svg version="1.0" xmlns="http://www.w3.org/2000/svg"
     width="200pt" height="200pt" viewBox="0 0 200 200"
     preserveAspectRatio="xMidYMid meet">

    <g transform="translate(50.000000,200.000000) scale(0.100000,-0.100000)"
       fill="#ffffff" stroke="#000000">
        <path d="M592 1706 c-19 -6 -45 -22 -58 -35 l-24 -23 32 -17 c39 -19 74 -68
89 -125 l11 -41 23 51 c24 55 64 92 107 101 35 7 35 17 3 49 -50 50 -117 65
-183 40z"/>
        <path d="M321 1661 c-20 -5 -22 -8 -9 -19 38 -31 46 -167 22 -364 -4 -30 0
-67 11 -104 14 -49 27 -68 88 -126 69 -65 129 -97 161 -85 7 3 31 44 55 93 42
85 43 90 39 168 -3 65 -10 93 -35 141 -16 33 -38 86 -47 117 -21 70 -55 113
-104 129 -20 7 -48 20 -62 30 -29 20 -85 30 -119 20z"/>
        <path d="M874 1621 c-12 -5 -25 -14 -29 -20 -3 -6 -23 -11 -43 -11 -53 0 -80
-23 -113 -97 l-29 -63 19 -43 c27 -58 45 -168 37 -222 -4 -24 -17 -59 -29 -77
-51 -75 -76 -128 -61 -128 68 0 243 144 263 215 6 22 11 94 11 160 0 143 11
189 56 231 27 26 31 34 20 44 -20 15 -77 22 -102 11z"/>

        <path d="M467 976 c4 -6 22 -29 40 -52 18 -23 33 -50 33 -61 0 -26 -37 -138
-62 -188 -26 -49 -100 -154 -127 -179 -19 -18 -20 -17 -37 20 -13 28 -18 67
-20 139 -1 112 -9 134 -58 164 -48 30 -61 27 -74 -18 -30 -99 2 -178 79 -196
22 -5 31 -18 48 -64 11 -32 21 -64 21 -72 0 -8 -41 -55 -91 -104 -50 -50 -109
-117 -130 -149 -43 -65 -75 -154 -60 -169 5 -5 12 5 16 25 19 84 66 152 219
308 83 85 168 180 189 212 l37 56 51 -21 50 -21 37 19 c35 19 82 76 82 99 0
12 -125 5 -171 -9 -19 -6 -21 -4 -15 11 5 11 15 49 24 86 l17 67 58 27 c63 31
102 63 53 44 -47 -17 -119 -12 -169 13 -25 13 -43 19 -40 13z"/>
        <path d="M110 614 c0 -14 24 -51 44 -66 21 -18 67 -22 99 -10 16 7 14 11 -15
32 -18 14 -41 30 -53 37 -20 12 -75 18 -75 7z"/>
    </g>
</svg>
